<svg width="0" height="0">
  <symbol xmlns="http://www.w3.org/2000/svg" viewBox="8.014 4.35 32 37" id="icon-1" fill="#63d1bb">
    <path d="M24 41.65c8.827 0 15.986-7.159 15.986-15.986C31.158 25.664 24 32.822 24 41.65zM12.641 20.78c0 2.451 1.989 4.441 4.44 4.441.932 0 1.803-.294 2.513-.782l-.036.337c0 2.451 1.99 4.441 4.441 4.441s4.44-1.99 4.44-4.441l-.036-.337c.719.497 1.582.782 2.514.782 2.451 0 4.44-1.99 4.44-4.441 0-1.768-1.038-3.286-2.54-3.997 1.492-.71 2.54-2.229 2.54-3.997 0-2.451-1.989-4.44-4.44-4.44-.932 0-1.803.293-2.514.781l.037-.337c0-2.451-1.989-4.44-4.44-4.44s-4.441 1.99-4.441 4.44l.036.337c-.719-.497-1.581-.781-2.513-.781-2.451 0-4.44 1.99-4.44 4.44 0 1.768 1.039 3.286 2.54 3.997-1.502.711-2.541 2.229-2.541 3.997zM24 12.343c2.451 0 4.44 1.989 4.44 4.44 0 2.451-1.989 4.44-4.44 4.44s-4.441-1.99-4.441-4.44c0-2.451 1.99-4.44 4.441-4.44zM8.014 25.664c0 8.827 7.158 15.986 15.986 15.986 0-8.828-7.158-15.986-15.986-15.986z"/>
  </symbol>
  <symbol xmlns="http://www.w3.org/2000/svg" viewBox="46.212 56.834 46.575 27.332" id="icon-2" fill="#63d1bb">
    <path d="M88.882 56.834H50.116a3.905 3.905 0 0 0-3.904 3.905V80.26a3.905 3.905 0 0 0 3.904 3.905h38.766a3.906 3.906 0 0 0 3.905-3.905V60.739a3.906 3.906 0 0 0-3.905-3.905zm-39.647 24.95V59.551h40.202v22.233H49.235z"></path>
    <path d="M53.14 77.88h32.395V63.456H53.14V77.88zM69.5 65.354a5.315 5.315 0 1 1 0 10.63 5.315 5.315 0 0 1 0-10.63z"></path>
  </symbol>
  <symbol xmlns="http://www.w3.org/2000/svg" viewBox="47.475 50.071 33.05 27.857" id="icon-3" fill="#63d1bb">
    <path d="M80.525 58.808a8.736 8.736 0 0 0-8.736-8.736A8.727 8.727 0 0 0 64 54.865a8.727 8.727 0 0 0-7.789-4.793 8.736 8.736 0 0 0-8.736 8.736c0 9.127 14.657 19.121 16.525 19.121 1.869 0 16.525-9.95 16.525-19.121z"></path>
  </symbol>
  <symbol xmlns="http://www.w3.org/2000/svg" viewBox="0 0 35 34" id="icon-4" fill="#63d1bb">
    <path d="M.286 14.069a17.244 17.244 0 0 0 .008 6.301l4.121-3.21-4.129-3.091zM24.403 1.585C19.62-.623 13.959-.559 9.149 1.992l7.513 5.625 7.741-6.032zm9.498 11.59l-4.811 3.748 4.936 3.695a17.248 17.248 0 0 0-.125-7.443zM9.209 32.414c4.844 2.534 10.724 2.65 15.73.113l-8.096-6.062-7.634 5.949zM7.914 14.433L1.681 9.767c-.32.669-.595 1.356-.825 2.056l5.308 3.974 1.75-1.364zm10.679 10.669l8.336 6.242a17.184 17.184 0 0 0 1.74-1.372l-8.326-6.234-1.75 1.364zm-7.18-13.395L4.002 6.158a17.073 17.073 0 0 0-1.269 1.723l6.931 5.189 1.749-1.363zm10.68 10.668l8.092 6.059c.471-.544.904-1.112 1.297-1.701l-7.639-5.721-1.75 1.363zM14.913 8.98L7.196 3.203a17.436 17.436 0 0 0-1.709 1.394l7.676 5.747 1.75-1.364zm10.679 10.669l6.972 5.221c.33-.662.615-1.341.855-2.033l-6.077-4.55-1.75 1.362zm.856-16.943L.88 22.626c.233.698.513 1.386.839 2.059l26.52-20.663a17.006 17.006 0 0 0-1.791-1.316zm4.295 3.918a17.418 17.418 0 0 0-.939-1.106L2.786 26.567a17.144 17.144 0 0 0 1.279 1.717l27.09-21.108c-.134-.186-.269-.37-.412-.552zm1.555 2.375L5.552 29.838c.544.501 1.114.962 1.708 1.382l25.962-20.228a17.158 17.158 0 0 0-.924-1.993z"></path>
  </symbol>
  <symbol xmlns="http://www.w3.org/2000/svg" viewBox="612.532 500.386 54.156 23.183" id="icon-5" fill="#63d1bb">
    <path d="M652.844 506.098c-3.647-.971-7.839-1.667-12.359-1.666a46.394 46.394 0 0 0-7.71.623l-6.784-4.668-13.456.005 5.811 6.184h8.447c-4.58 1.598-6.759 3.515-6.759 3.515l.002 3.777s2.313 1.912 6.931 3.518l-8.623-.005-5.811 6.188 13.455.002 6.816-4.692c2.261.398 4.822.647 7.681.648 4.522-.001 8.712-.697 12.36-1.667-1.176-1.775-1.915-3.743-1.918-5.877.003-2.141.738-4.112 1.917-5.885zm3.423 1.034c-1.284 1.605-1.969 3.25-1.965 4.84-.007 1.597.677 3.238 1.968 4.847 6.399-2.162 10.419-4.841 10.419-4.841s-4.019-2.68-10.422-4.846z"></path>
  </symbol>
  <symbol xmlns="http://www.w3.org/2000/svg" viewBox="0 0 33 32" id="icon-6" fill="#63d1bb">
    <defs>
      <clipPath id="a">
        <path d="M0 32.486h32.666V0H0v32.486z"></path>
      </clipPath>
    </defs>
    <g clip-path="url(#a)" transform="matrix(1.01022 0 0 -1.01582 0 33)">
      <path d="M17.271 0h12.506v13.91H17.271V0zm1.981 27.586c.557.797 1.21 1.466 1.887 1.916.679.451 1.362.683 2.047.683h.005c.575 0 1.118-.22 1.495-.55.377-.336.571-.739.573-1.171-.004-.512-.273-1.259-1.467-2.132-1.138-.825-3.101-1.673-6.127-2.265a10.57 10.57 0 0 0 1.587 3.519M8.715 25.959c-.622.391-1 .785-1.22 1.135-.22.353-.294.662-.296.963-.004.504.248 1.042.692 1.461.436.415 1.028.667 1.562.667h.013c.684 0 1.366-.232 2.046-.683 1.017-.671 1.974-1.85 2.644-3.187.342-.675.61-1.389.789-2.086-3.082.32-5.078 1-6.23 1.73m22.362-2.339h-7.335c.522.267.985.549 1.397.845 1.588 1.133 2.424 2.57 2.42 3.999.002 1.169-.556 2.202-1.36 2.901a4.582 4.582 0 0 1-3.015 1.121c-1.22.001-2.352-.421-3.321-1.069-1.459-.979-2.606-2.451-3.424-4.067-.039-.079-.078-.158-.115-.237a12.944 12.944 0 0 1-1.041 1.792c-.691.986-1.523 1.861-2.497 2.511-.97.647-2.102 1.069-3.322 1.069-1.213-.004-2.323-.513-3.155-1.295-.829-.783-1.411-1.884-1.413-3.134a4.095 4.095 0 0 1 .65-2.188c.552-.872 1.424-1.628 2.633-2.248H1.591A1.591 1.591 0 0 1 0 22.03v-5.897h15.396v7.488h1.874v-7.488h15.396v5.897c.002.879-.71 1.59-1.589 1.59M2.895 0h12.504v13.91H2.895V0z"></path>
    </g>
  </symbol>
</svg>
